<svg xmlns="http://www.w3.org/2000/svg" width="1400" height="820" viewBox="0 0 1400 820">
  <defs>
    <style>
      .display { font-family: 'Chakra Petch', 'Arial Narrow', system-ui, sans-serif; font-weight: 700; }
      .body { font-family: Inter, system-ui, sans-serif; }
      .mono { font-family: 'IBM Plex Mono', ui-monospace, monospace; }
    </style>
  </defs>

  <rect width="1400" height="820" fill="#121022"/>
  <circle cx="105" cy="60" r="235" fill="#8f7ff7" opacity=".055"/>
  <circle cx="1335" cy="775" r="300" fill="#e8b54d" opacity=".035"/>
  <text x="58" y="66" class="display" fill="#ece9f8" font-size="30" letter-spacing="3">SSBM STATS · SIMPLER + GOOFIER</text>
  <text x="58" y="96" class="mono" fill="#8981ae" font-size="14">Flat shapes, one joke, readable at 32px. No official game marks or character silhouettes.</text>

  <!-- 1: S Goblin -->
  <g transform="translate(46 134)">
    <rect width="310" height="620" rx="22" fill="#1a1730" stroke="#34305a" stroke-width="2"/>
    <text x="28" y="42" class="mono" fill="#8f7ff7" font-size="13" letter-spacing="2.6">01 · LITTLE WEIRDO</text>
    <g transform="translate(45 72)">
      <rect width="220" height="220" rx="49" fill="#121022" stroke="#51497b" stroke-width="2"/>
      <path d="M154 57c-19-17-61-18-79-3-23 20-8 44 20 49l25 5c26 6 38 20 31 39-10 27-56 34-88 12"
            fill="none" stroke="#0b0915" stroke-width="40" stroke-linecap="round"/>
      <path d="M154 57c-19-17-61-18-79-3-23 20-8 44 20 49l25 5c26 6 38 20 31 39-10 27-56 34-88 12"
            fill="none" stroke="#9d86ff" stroke-width="30" stroke-linecap="round"/>
      <g fill="#ece9f8" stroke="#0b0915" stroke-width="4">
        <circle cx="119" cy="54" r="12"/><circle cx="143" cy="58" r="12"/>
      </g>
      <circle cx="122" cy="57" r="4" fill="#0b0915"/><circle cx="140" cy="61" r="4" fill="#0b0915"/>
      <path d="M112 142q15 12 31-1" fill="none" stroke="#0b0915" stroke-width="6" stroke-linecap="round"/>
      <rect x="124" y="144" width="9" height="10" rx="2" fill="#ece9f8" stroke="#0b0915" stroke-width="3"/>
    </g>
    <text x="28" y="336" class="display" fill="#ece9f8" font-size="25" letter-spacing="2">S GOBLIN</text>
    <text x="28" y="369" class="body" fill="#aaa3c9" font-size="15">A plain S that looks like it</text>
    <text x="28" y="391" class="body" fill="#aaa3c9" font-size="15">knows your matchup is cursed.</text>
    <g transform="translate(28 454)">
      <rect width="44" height="44" rx="10" fill="#121022" stroke="#51497b"/>
      <path d="M34 12c-6-6-21-5-21 3 0 5 6 6 12 7 9 2 11 7 7 12-5 6-16 5-21 1" fill="none" stroke="#9d86ff" stroke-width="7" stroke-linecap="round"/>
      <circle cx="27" cy="12" r="3" fill="#ece9f8"/><circle cx="34" cy="14" r="3" fill="#ece9f8"/>
      <text x="58" y="19" class="display" fill="#ece9f8" font-size="17" letter-spacing="1.8">SSBM</text>
      <text x="58" y="39" class="display" fill="#8f7ff7" font-size="17" letter-spacing="3">STATS</text>
    </g>
    <text x="28" y="586" class="mono" fill="#e8b54d" font-size="12">SIMPLE · MEMORABLE · MASCOT-Y</text>
  </g>

  <!-- 2: Stock Stairs -->
  <g transform="translate(380 134)">
    <rect width="310" height="620" rx="22" fill="#1a1730" stroke="#34305a" stroke-width="2"/>
    <text x="28" y="42" class="mono" fill="#8f7ff7" font-size="13" letter-spacing="2.6">02 · TINY TEAM</text>
    <g transform="translate(45 72)">
      <rect width="220" height="220" rx="49" fill="#121022" stroke="#51497b" stroke-width="2"/>
      <g stroke="#0b0915" stroke-width="8">
        <circle cx="52" cy="158" r="25" fill="#8170df"/>
        <circle cx="92" cy="129" r="25" fill="#8f7ff7"/>
        <circle cx="132" cy="95" r="25" fill="#a18cff"/>
        <circle cx="172" cy="55" r="25" fill="#e8b54d"/>
      </g>
      <g fill="#ece9f8">
        <circle cx="46" cy="154" r="4"/><circle cx="58" cy="154" r="4"/>
        <circle cx="86" cy="125" r="4"/><circle cx="98" cy="125" r="4"/>
        <circle cx="126" cy="91" r="4"/><circle cx="138" cy="91" r="4"/>
        <circle cx="166" cy="51" r="4"/><circle cx="178" cy="51" r="4"/>
      </g>
      <g fill="none" stroke="#0b0915" stroke-width="4" stroke-linecap="round">
        <path d="M46 165h12"/><path d="M86 136q6 5 12 0"/><path d="M126 102q6-5 12 0"/><path d="M166 62q6 7 12 0"/>
      </g>
    </g>
    <text x="28" y="336" class="display" fill="#ece9f8" font-size="25" letter-spacing="2">STOCK STAIRS</text>
    <text x="28" y="369" class="body" fill="#aaa3c9" font-size="15">Four little stocks accidentally</text>
    <text x="28" y="391" class="body" fill="#aaa3c9" font-size="15">make a very serious chart.</text>
    <g transform="translate(28 454)">
      <rect width="44" height="44" rx="10" fill="#121022" stroke="#51497b"/>
      <circle cx="10" cy="33" r="6" fill="#8170df"/><circle cx="18" cy="26" r="6" fill="#8f7ff7"/>
      <circle cx="26" cy="18" r="6" fill="#a18cff"/><circle cx="34" cy="9" r="6" fill="#e8b54d"/>
      <text x="58" y="19" class="display" fill="#ece9f8" font-size="17" letter-spacing="1.8">SSBM</text>
      <text x="58" y="39" class="display" fill="#8f7ff7" font-size="17" letter-spacing="3">STATS</text>
    </g>
    <text x="28" y="586" class="mono" fill="#e8b54d" font-size="12">CLEAR · PLAYFUL · STATS-CODED</text>
  </g>

  <!-- 3: Last Stock -->
  <g transform="translate(714 134)">
    <rect width="310" height="620" rx="22" fill="#1a1730" stroke="#34305a" stroke-width="2"/>
    <text x="28" y="42" class="mono" fill="#8f7ff7" font-size="13" letter-spacing="2.6">03 · UH-OH</text>
    <g transform="translate(45 72)">
      <rect width="220" height="220" rx="49" fill="#121022" stroke="#51497b" stroke-width="2"/>
      <g stroke="#0b0915" stroke-width="9">
        <circle cx="51" cy="95" r="27" fill="#9d86ff"/>
        <circle cx="106" cy="95" r="27" fill="#9d86ff"/>
        <circle cx="161" cy="95" r="27" fill="#9d86ff"/>
        <circle cx="168" cy="162" r="27" fill="#e8b54d"/>
      </g>
      <path d="M178 124l10-14M190 138l16-5M154 127l-7-16" stroke="#e8b54d" stroke-width="7" stroke-linecap="round"/>
      <g fill="#ece9f8">
        <circle cx="45" cy="91" r="4"/><circle cx="57" cy="91" r="4"/>
        <circle cx="100" cy="91" r="4"/><circle cx="112" cy="91" r="4"/>
        <circle cx="155" cy="91" r="4"/><circle cx="167" cy="91" r="4"/>
        <circle cx="162" cy="157" r="4"/><circle cx="174" cy="157" r="4"/>
      </g>
      <path d="M159 172q9-8 18 0" fill="none" stroke="#0b0915" stroke-width="4" stroke-linecap="round"/>
    </g>
    <text x="28" y="336" class="display" fill="#ece9f8" font-size="25" letter-spacing="2">LAST STOCK</text>
    <text x="28" y="369" class="body" fill="#aaa3c9" font-size="15">Four stock dots. One has made</text>
    <text x="28" y="391" class="body" fill="#aaa3c9" font-size="15">a statistically poor decision.</text>
    <g transform="translate(28 454)">
      <rect width="44" height="44" rx="10" fill="#121022" stroke="#51497b"/>
      <circle cx="9" cy="17" r="7" fill="#9d86ff"/><circle cx="22" cy="17" r="7" fill="#9d86ff"/>
      <circle cx="35" cy="17" r="7" fill="#9d86ff"/><circle cx="35" cy="34" r="7" fill="#e8b54d"/>
      <text x="58" y="19" class="display" fill="#ece9f8" font-size="17" letter-spacing="1.8">SSBM</text>
      <text x="58" y="39" class="display" fill="#8f7ff7" font-size="17" letter-spacing="3">STATS</text>
    </g>
    <text x="28" y="586" class="mono" fill="#e8b54d" font-size="12">MINIMAL · MELEE · VERY SILLY</text>
  </g>

  <!-- 4: Port Face -->
  <g transform="translate(1048 134)">
    <rect width="310" height="620" rx="22" fill="#1a1730" stroke="#34305a" stroke-width="2"/>
    <text x="28" y="42" class="mono" fill="#8f7ff7" font-size="13" letter-spacing="2.6">04 · SECRET FACE</text>
    <g transform="translate(45 72)">
      <rect width="220" height="220" rx="49" fill="#9d86ff" stroke="#0b0915" stroke-width="9"/>
      <g fill="#121022" stroke="#0b0915" stroke-width="7">
        <circle cx="73" cy="75" r="25"/><circle cx="147" cy="75" r="25"/>
        <circle cx="73" cy="151" r="25"/><circle cx="147" cy="151" r="25"/>
      </g>
      <circle cx="79" cy="70" r="7" fill="#ece9f8"/><circle cx="141" cy="70" r="7" fill="#ece9f8"/>
      <path d="M83 148q27 32 54 0" fill="none" stroke="#ece9f8" stroke-width="8" stroke-linecap="round"/>
      <rect x="106" y="155" width="15" height="16" rx="3" fill="#ece9f8"/>
    </g>
    <text x="28" y="336" class="display" fill="#ece9f8" font-size="25" letter-spacing="2">PORT FACE</text>
    <text x="28" y="369" class="body" fill="#aaa3c9" font-size="15">Four controller ports that are</text>
    <text x="28" y="391" class="body" fill="#aaa3c9" font-size="15">also, unfortunately, a face.</text>
    <g transform="translate(28 454)">
      <rect width="44" height="44" rx="10" fill="#9d86ff" stroke="#51497b"/>
      <circle cx="14" cy="14" r="6" fill="#121022"/><circle cx="30" cy="14" r="6" fill="#121022"/>
      <circle cx="14" cy="30" r="6" fill="#121022"/><circle cx="30" cy="30" r="6" fill="#121022"/>
      <circle cx="16" cy="12" r="2" fill="#ece9f8"/><circle cx="28" cy="12" r="2" fill="#ece9f8"/>
      <text x="58" y="19" class="display" fill="#ece9f8" font-size="17" letter-spacing="1.8">SSBM</text>
      <text x="58" y="39" class="display" fill="#8f7ff7" font-size="17" letter-spacing="3">STATS</text>
    </g>
    <text x="28" y="586" class="mono" fill="#e8b54d" font-size="12">BOLD · ODD · GREAT APP ICON</text>
  </g>

  <text x="700" y="792" class="mono" fill="#6b6490" font-size="12" text-anchor="middle">Round two · rough shapes only; the winner gets a proper icon and wordmark refinement.</text>
</svg>
